<?xml version="1.0" encoding="utf-8"?>
<!-- Generator: Adobe Illustrator 16.0.0, SVG Export Plug-In . SVG Version: 6.00 Build 0)  -->
<!DOCTYPE svg PUBLIC "-//W3C//DTD SVG 1.1//EN" "http://www.w3.org/Graphics/SVG/1.1/DTD/svg11.dtd">
<svg version="1.1" id="Layer_1" xmlns="http://www.w3.org/2000/svg" xmlns:xlink="http://www.w3.org/1999/xlink" x="0px" y="0px"
	 width="96px" height="16px" viewBox="0 0 96 16" enable-background="new 0 0 96 16" xml:space="preserve">
<rect x="-3" y="-3.083" display="none" fill="#9B7070" stroke="#F7F7F7" stroke-miterlimit="10" width="100.583" height="21.25"/>
<rect x="-0.371" y="-1.688" display="none" stroke="#FFFFFF" stroke-miterlimit="10" width="114.288" height="20.062"/>
<g transform="translate(16, 0)">
	<path fill="#FFFFFF" d="M78.797,1.134h-14c-0.6,0-1,0.4-1,1v12c0,0.6,0.4,1,1,1h14c0.6,0,1-0.4,1-1v-12
		C79.797,1.534,79.396,1.134,78.797,1.134z M77.797,13.135h-12v-6.3l5.5,3.099c0.201,0.201,0.301,0.201,0.5,0.201
		c0.201,0,0.301,0,0.5-0.1l5.5-3.201V13.135z M77.797,4.534l-6,3.4l-6-3.4v-1.4h12V4.534z"/>
</g>
<g transform="translate(32, 0)">
	<path fill="#FFFFFF" d="M-27.972,15.789h9.927c0.595,0,0.993-0.397,0.993-0.992V7.351l0.298,0.298
		c0.199,0.099,0.497,0.199,0.695,0.199c0.298,0,0.596-0.1,0.794-0.298c0.397-0.397,0.297-0.993-0.099-1.39l-6.949-5.957
		c-0.397-0.297-0.894-0.297-1.291,0l-3.375,2.78V1.891c0-0.596-0.397-0.993-0.993-0.993s-0.993,0.397-0.993,0.993v2.78l-1.688,1.39
		c-0.397,0.397-0.496,0.993-0.099,1.39c0.397,0.397,0.993,0.496,1.39,0.099l0.397-0.199v7.446
		C-28.964,15.392-28.567,15.789-27.972,15.789z M-26.979,5.564l3.971-3.375l3.971,3.475c0,0.099,0,0.099,0,0.199v7.941h-1.985
		v-2.978c0-0.596-0.397-0.993-0.993-0.993H-24c-0.596,0-0.993,0.397-0.993,0.993v2.978h-1.985V5.564z"/>
	<rect x="-24.994" y="5.862" fill="#FFFFFF" width="3.971" height="1.985"/>
</g>
<g transform="translate(48, 0)">
	<circle fill="#FFFFFF" cx="8.466" cy="8.344" r="1.986"/>
	<path fill="#FFFFFF" d="M12.437,2.387H8.466c-3.277,0-5.957,2.681-5.957,5.957c0,3.275,2.68,5.957,5.957,5.957h3.971
		c3.275,0,5.957-2.682,5.957-5.957C18.394,5.068,15.712,2.387,12.437,2.387z M12.437,12.314H8.466c-2.186,0-3.971-1.787-3.971-3.971
		c0-2.184,1.785-3.971,3.971-3.971h3.971c2.184,0,3.971,1.787,3.971,3.971C16.407,10.527,14.62,12.314,12.437,12.314z"/>
</g>
<g transform="translate(64, 0)">
	<path fill="#FFFFFF" d="M-23.983,0.058h-4.964c-0.596,0-0.993,0.397-0.993,0.993v4.963c0,0.596,0.397,0.993,0.993,0.993h4.964
		c0.594,0,0.993-0.397,0.993-0.993V1.05C-22.99,0.455-23.389,0.058-23.983,0.058z M-24.977,5.021h-2.978V2.043h2.978V5.021z"/>
	<path fill="#FFFFFF" d="M-15.049,0.058h-4.963c-0.596,0-0.994,0.397-0.994,0.993v4.963c0,0.596,0.398,0.993,0.994,0.993h4.963
		c0.596,0,0.992-0.397,0.992-0.993V1.05C-14.057,0.455-14.453,0.058-15.049,0.058z M-16.041,5.021h-2.979V2.043h2.979V5.021z"/>
	<path fill="#FFFFFF" d="M-23.983,8.992h-4.964c-0.596,0-0.993,0.396-0.993,0.992v4.963c0,0.596,0.397,0.994,0.993,0.994h4.964
		c0.594,0,0.993-0.398,0.993-0.994V9.984C-22.99,9.389-23.389,8.992-23.983,8.992z M-24.977,13.955h-2.978v-2.979h2.978V13.955z"/>
	<path fill="#FFFFFF" d="M-15.049,8.992h-4.963c-0.596,0-0.994,0.396-0.994,0.992v4.963c0,0.596,0.398,0.994,0.994,0.994h4.963
		c0.596,0,0.992-0.398,0.992-0.994V9.984C-14.057,9.389-14.453,8.992-15.049,8.992z M-16.041,13.955h-2.979v-2.979h2.979V13.955z"/>
</g>
<g>
	<path fill="#FFFFFF" d="M32.808,13.746h-0.757c0,0-0.758,0-0.758-0.662v-1.656c0-0.182-0.169-0.33-0.379-0.33
		c-0.209,0-0.379,0.148-0.379,0.33l-0.006,2.846c0,0.404-1.521,1.461-4.915,1.461s-4.916-1.057-4.916-1.461l-0.006-2.846
		c0-0.182-0.169-0.33-0.378-0.33s-0.378,0.148-0.378,0.33v1.656c0,0.662-0.757,0.662-0.757,0.662h-0.758c0,0-0.757,0-0.757-0.662
		V10.27c0-1.936,2.189-3.578,5.247-4.2c0,0,0.934,0.733,2.703,0.733c1.768,0,2.703-0.733,2.703-0.733
		c3.058,0.623,5.247,2.264,5.247,4.2v2.814C33.564,13.746,32.808,13.746,32.808,13.746z M25.597,5.798
		c-1.882,0-3.408-1.335-3.408-2.981c0-1.646,1.525-2.981,3.408-2.981s3.407,1.335,3.407,2.981
		C29.004,4.462,27.479,5.798,25.597,5.798z"/>
</g>
<g>
	<path fill="#FFFFFF" d="M76.865,6.972l-2.697-2.698l-7.193,7.194v2.697h2.697L76.865,6.972z M78.994,4.844
		c0.281-0.281,0.281-0.735,0-1.015l-1.682-1.683c-0.281-0.281-0.734-0.281-1.014,0l-1.412,1.409l2.697,2.697L78.994,4.844z"/>
	<path display="none" fill="none" d="M96.955-29.356h17.266v17.263H96.955V-29.356z"/>
	<path display="none" fill-opacity="0.36" d="M96.955-14.97h17.266v2.877H96.955V-14.97z"/>
</g>
</svg>
